<svg xmlns="http://www.w3.org/2000/svg" width="260" height="330" viewBox="0 0 260 330">
<defs><linearGradient id="c" x2="0" y2="1"><stop stop-color="#42a9ed"/><stop offset="1" stop-color="#1d4d9b"/></linearGradient></defs>
<ellipse cx="130" cy="310" rx="62" ry="15" fill="#000" opacity=".4"/>
<circle cx="130" cy="105" r="49" fill="#ffd0a1" stroke="#8b4e35" stroke-width="7"/>
<path d="M82 100Q88 45 130 38Q172 45 178 100L160 78 130 91 100 78z" fill="#e8b83d" stroke="#81580d" stroke-width="7"/>
<circle cx="113" cy="111" r="5"/><circle cx="147" cy="111" r="5"/>
<path d="M112 132q18 13 36 0" fill="none" stroke="#8b4e35" stroke-width="5"/>
<path d="M76 165Q130 130 184 165L207 280H53z" fill="url(#c)" stroke="#183b75" stroke-width="8"/>
<path d="M80 180l-50 60 29 22 62-65M180 180l50 60-29 22-62-65" fill="url(#c)" stroke="#183b75" stroke-width="8"/>
<path d="M95 280v30M165 280v30" stroke="#27203d" stroke-width="24" stroke-linecap="round"/>
</svg>